<svg xmlns="http://www.w3.org/2000/svg" width="176.392" height="46"><path data-name="Path 4455" d="M173.65 18.051a2.758 2.758 0 00-2.741 2.76v.02a2.731 2.731 0 002.741 2.741 2.758 2.758 0 002.741-2.76v-.009a2.738 2.738 0 00-2.741-2.752zm2.429 2.76a2.429 2.429 0 11-4.857.009v-.018a2.429 2.429 0 114.857-.009zm-1.076-.534c0-.653-.488-.948-1.15-.948h-1.343v2.852h.69v-.9h.442l.616.9h.837l-.727-1.021a.882.882 0 00.635-.883zm-1.2.442h-.6v-.788h.6c.3 0 .488.138.488.4.003.231-.171.388-.484.388z" fill="#a29485"/><g data-name="Group 1129"><g data-name="Group 1126"><path data-name="Path 4456" d="M52.935 18.001c-1.049-1.8-10.892-8.326-14.121-9.9C26.026.387 13.533-1.83 8.584 1.501 6.091 2.982 4.923 4.619 3.23 7.186a19.958 19.958 0 00-2.129 4.71 40.929 40.929 0 00-1.1 10.705A56.8 56.8 0 001.289 33.57a11.806 11.806 0 001.545 3.891 14.863 14.863 0 008.721 7.976c5.547 2.217 16.909-2.548 23.339-6.789 1.877-1.233 4.259-2.916 6.734-4.756a5.682 5.682 0 01-2.346-1.159c-1.435-1.27-1.509-2.925-1.509-4.609v-7.35h3.744v6.881c0 1.7.129 3.551 2.539 3.551s2.545-1.859 2.545-3.552v-6.881h3.744v6.008a39.994 39.994 0 002.18-2.162c1.992-2.061 2.792-4.158.41-6.618z" fill="#a12021"/><path data-name="Path 4457" d="M44.077 34.187a7.371 7.371 0 004.775-1.454c1.435-1.27 1.509-2.925 1.509-4.609v-1.352a111.857 111.857 0 01-8.712 7.12 9.913 9.913 0 002.428.295z" fill="#a12021"/><path data-name="Path 4458" d="M46.613 20.764v6.881c0 1.7-.138 3.551-2.539 3.551s-2.539-1.858-2.539-3.551v-6.881h-3.742v7.35c0 1.684.074 3.339 1.509 4.609a5.467 5.467 0 002.346 1.159 109.79 109.79 0 008.712-7.12v-6.007h-3.747z" fill="#fff"/></g><path data-name="Path 4459" d="M59.319 33.836H55.29V20.764h4.02v13.072z" fill="#a12021"/><path data-name="Path 4460" d="M69.862 33.836h-4.436V23.643h-3.66v-2.879h11.76v2.879h-3.664v10.193z" fill="#a12021"/><path data-name="Path 4461" d="M78.702 31.564l-1.058 2.272h-4.222l5.89-13.072h4.34l5.76 13.072H85.17l-.994-2.272zm2.787-6.762h-.037l-1.647 4.167h3.312z" fill="#a12021"/><path data-name="Path 4462" d="M105.161 33.836h-5.234l-3.966-5.032h-.046v5.032h-4.2V20.764h6.283c3.192 0 5.621 1.233 5.621 4.02a3.736 3.736 0 01-3.542 3.689zm-9.245-7.212h.4c1.371 0 2.916-.2 2.916-1.628s-1.546-1.628-2.916-1.628h-.4z" fill="#a12021"/><g data-name="Group 1127" fill="#a29485"><path data-name="Path 4463" d="M112.823 33.837h-3.533V23.644h-2.925v-2.879h9.38v2.879h-2.925z"/><path data-name="Path 4464" d="M127.864 33.837h-4.4l-3.339-5.032h-.037v5.032h-3.53V20.765h5.29c2.686 0 4.729 1.233 4.729 4.02a3.537 3.537 0 01-2.971 3.689zm-7.774-7.212h.34c1.15 0 2.456-.2 2.456-1.628s-1.3-1.628-2.456-1.628h-.34z"/><path data-name="Path 4465" d="M132.354 33.837h-3.533V20.765h3.533z"/><path data-name="Path 4466" d="M143.761 25.153a3.893 3.893 0 00-3.1-1.435 3.508 3.508 0 00-3.625 3.625 3.46 3.46 0 003.68 3.551 4.117 4.117 0 003.045-1.38v4.075a10.276 10.276 0 01-3.119.607 7.734 7.734 0 01-5.106-1.923 6.268 6.268 0 01-2.18-4.949 6.711 6.711 0 012-4.784 7.53 7.53 0 015.179-2.116 8.658 8.658 0 013.229.662z"/><path data-name="Path 4467" d="M152.859 20.765h4.388l-5.409 6.191 5.9 6.881h-4.581l-4.563-5.667h-.037v5.667h-3.545V20.765h3.542v5.391h.037z"/><path data-name="Path 4468" d="M165.527 24.132a3.8 3.8 0 00-2.346-.874c-.644 0-1.518.368-1.518 1.095 0 .764.957 1.058 1.573 1.251l.9.258c1.9.543 3.358 1.454 3.358 3.569a4.348 4.348 0 01-1.408 3.523 6.157 6.157 0 01-3.864 1.233 8.6 8.6 0 01-4.775-1.49l1.518-2.741a4.944 4.944 0 003.137 1.352c.828 0 1.711-.4 1.711-1.316 0-.957-1.389-1.279-2.153-1.49-2.217-.607-3.68-1.159-3.68-3.7 0-2.649 1.969-4.388 4.692-4.388a9.582 9.582 0 014.259 1.076z"/></g><g data-name="Group 1128"><path data-name="Path 4469" d="M36.661 21.794c-.083 4.232-.4 7.847-3.128 11.463-3 3.956-7.507 5.685-12.622 5.685-9.61 0-16.31-6.182-16.31-15.299 0-9.42 6.734-15.611 16.605-15.611 6.292 0 11.159 2.686 13.8 8.114l-7.553 3a6.891 6.891 0 00-6.614-4.618c-5.234 0-7.948 4.729-7.948 9.153 0 4.5 2.843 9.071 8.077 9.071 3.45 0 6.09-1.693 6.412-5.041h-6.496v-5.926h15.777z" fill="#fff"/></g></g></svg>